<svg width="18" height="18" viewBox="0 0 18 18" fill="none" xmlns="http://www.w3.org/2000/svg">
  <path d="M6.4 14.2C6.8 15.1 7.76 15.75 9 15.75C10.24 15.75 11.2 15.1 11.6 14.2" stroke="#334155" stroke-width="1.5" stroke-linecap="round"/>
  <path d="M13.2 7.1C13.2 4.78 11.32 2.9 9 2.9C6.68 2.9 4.8 4.78 4.8 7.1V9.05C4.8 9.72 4.57 10.37 4.15 10.89L3.15 12.1C2.87 12.44 3.11 12.95 3.56 12.95H14.44C14.89 12.95 15.13 12.44 14.85 12.1L13.85 10.89C13.43 10.37 13.2 9.72 13.2 9.05V7.1Z" stroke="#334155" stroke-width="1.5" stroke-linejoin="round"/>
</svg>
